<svg xmlns="http://www.w3.org/2000/svg" width="1000" height="320" viewBox="0 0 1000 320" role="img" aria-label="Dennis Do, Product Manager and Builder, Queens NYC. I direct AI agents to build and ship real product.">
  <title>Dennis Do, Product Manager and Builder</title>
  <style>
    .panel { fill: #050505; }
    .dots  { fill: #F4F3F1; }
    .name  { fill: #F4F3F1; font: 600 62px "Helvetica Neue", Helvetica, Arial, sans-serif; letter-spacing: -1.5px; }
    .role  { fill: #D4D4D8; font: 400 21px "Helvetica Neue", Helvetica, Arial, sans-serif; letter-spacing: 0.2px; }
    .meta  { fill: #98979D; font: 400 13px "Helvetica Neue", Helvetica, Arial, sans-serif; letter-spacing: 2.4px; }
    .tick  { fill: #7A7A82; font: 400 14px "Helvetica Neue", Helvetica, Arial, sans-serif; letter-spacing: 1.6px; }
    .slash { fill: #4A4A52; }
    .rule  { stroke: #26262A; stroke-width: 1; }
    .dot   { fill: #F4F3F1; }

    .rise { opacity: 0; animation: rise .9s cubic-bezier(.22,.61,.36,1) forwards; }
    .d1 { animation-delay: .15s; }
    .d2 { animation-delay: .35s; }
    .d3 { animation-delay: .55s; }
    .d4 { animation-delay: .75s; }
    @keyframes rise {
      from { opacity: 0; transform: translateY(18px); }
      to   { opacity: 1; transform: translateY(0); }
    }

    .draw { stroke-dasharray: 920; stroke-dashoffset: 920;
            animation: draw 1.5s cubic-bezier(.22,.61,.36,1) .8s forwards; }
    @keyframes draw { to { stroke-dashoffset: 0; } }

    .pulse { animation: pulse 2.6s ease-in-out 1.6s infinite; }
    @keyframes pulse { 0%, 100% { opacity: .25; } 50% { opacity: 1; } }

    .track { animation: scroll 38s linear infinite; }
    @keyframes scroll {
      from { transform: translateX(0); }
      to   { transform: translateX(-1700px); }
    }

    /* Hard cuts rather than cross fades, matching the shader's floor() quantised re-roll. */
    .f  { opacity: 0; animation: flip 15s step-end infinite; }
    .f0 { animation-delay:  0s; }
    .f1 { animation-delay: -10s; }
    .f2 { animation-delay: -5s; }
    @keyframes flip {
      0%     { opacity: 1; }
      33.33% { opacity: 0; }
      100%   { opacity: 0; }
    }

    @media (prefers-reduced-motion: reduce) {
      .rise, .draw, .pulse, .track, .f { animation: none; }
      .rise { opacity: 1; }
      .draw { stroke-dashoffset: 0; }
      .pulse { opacity: .7; }
      .f0 { opacity: 1; }
    }
  </style>

  <defs>
    <linearGradient id="fade" x1="0" x2="1">
      <stop offset="0"    stop-color="#fff" stop-opacity="0" />
      <stop offset="0.05" stop-color="#fff" stop-opacity="1" />
      <stop offset="0.95" stop-color="#fff" stop-opacity="1" />
      <stop offset="1"    stop-color="#fff" stop-opacity="0" />
    </linearGradient>
    <mask id="edges">
      <rect x="0" y="252" width="1000" height="68" fill="url(#fade)" />
    </mask>

    <filter id="soften" x="-50%" y="-50%" width="200%" height="200%">
      <feGaussianBlur stdDeviation="58" />
    </filter>
    <!-- Fades the grid out before the rule and marquee band at the bottom. -->
    <linearGradient id="vfade" x1="0" y1="0" x2="0" y2="1">
      <stop offset="0"    stop-color="#FFF" />
      <stop offset="0.62" stop-color="#FFF" />
      <stop offset="0.78" stop-color="#000" />
      <stop offset="1"    stop-color="#000" />
    </linearGradient>
    <!-- Clears the grid out from behind the copy block on the left. -->
    <mask id="keepClear">
      <rect width="1000" height="320" fill="url(#vfade)" />
      <ellipse cx="300" cy="140" rx="300" ry="105" fill="#000" filter="url(#soften)" />
    </mask>

    <clipPath id="panelClip">
      <rect width="1000" height="320" rx="16" />
    </clipPath>
  </defs>

  <g clip-path="url(#panelClip)">
    <rect class="panel" width="1000" height="320" />

    <g class="dots" mask="url(#keepClear)" opacity="0.5">
      <g class="f f0">
        <path d="M2 2h3v3h-3zM2 22h3v3h-3zM2 42h3v3h-3zM2 62h3v3h-3zM2 82h3v3h-3zM2 102h3v3h-3zM2 122h3v3h-3zM2 142h3v3h-3zM2 162h3v3h-3zM2 182h3v3h-3zM2 202h3v3h-3zM2 222h3v3h-3zM2 242h3v3h-3zM2 262h3v3h-3zM2 282h3v3h-3zM2 302h3v3h-3zM22 182h3v3h-3zM22 202h3v3h-3zM42 42h3v3h-3zM62 2h3v3h-3zM62 42h3v3h-3zM62 82h3v3h-3zM62 162h3v3h-3zM62 242h3v3h-3zM82 282h3v3h-3zM102 182h3v3h-3zM122 62h3v3h-3zM122 242h3v3h-3zM142 62h3v3h-3zM142 102h3v3h-3zM142 222h3v3h-3zM162 42h3v3h-3zM162 182h3v3h-3zM162 242h3v3h-3zM162 282h3v3h-3zM202 162h3v3h-3zM222 142h3v3h-3zM222 242h3v3h-3zM242 22h3v3h-3zM242 62h3v3h-3zM242 162h3v3h-3zM242 202h3v3h-3zM242 262h3v3h-3zM262 282h3v3h-3zM302 122h3v3h-3zM322 2h3v3h-3zM322 142h3v3h-3zM322 162h3v3h-3zM322 282h3v3h-3zM342 122h3v3h-3zM342 162h3v3h-3zM362 2h3v3h-3zM362 142h3v3h-3zM362 182h3v3h-3zM362 222h3v3h-3zM362 302h3v3h-3zM382 62h3v3h-3zM402 122h3v3h-3zM422 142h3v3h-3zM442 82h3v3h-3zM442 302h3v3h-3zM462 142h3v3h-3zM482 62h3v3h-3zM482 162h3v3h-3zM482 222h3v3h-3zM502 102h3v3h-3zM502 182h3v3h-3zM502 242h3v3h-3zM522 122h3v3h-3zM522 142h3v3h-3zM542 42h3v3h-3zM542 162h3v3h-3zM542 242h3v3h-3zM542 282h3v3h-3zM562 102h3v3h-3zM562 202h3v3h-3zM562 302h3v3h-3zM582 2h3v3h-3zM582 42h3v3h-3zM602 62h3v3h-3zM602 102h3v3h-3zM622 62h3v3h-3zM622 282h3v3h-3zM622 302h3v3h-3zM642 82h3v3h-3zM642 242h3v3h-3zM702 42h3v3h-3zM702 62h3v3h-3zM722 62h3v3h-3zM722 142h3v3h-3zM762 142h3v3h-3zM782 282h3v3h-3zM802 62h3v3h-3zM802 102h3v3h-3zM822 182h3v3h-3zM822 202h3v3h-3zM822 222h3v3h-3zM842 282h3v3h-3zM862 42h3v3h-3zM862 142h3v3h-3zM862 222h3v3h-3zM882 2h3v3h-3zM882 82h3v3h-3zM882 102h3v3h-3zM902 142h3v3h-3zM902 262h3v3h-3zM922 122h3v3h-3zM922 222h3v3h-3zM942 2h3v3h-3zM962 22h3v3h-3zM962 102h3v3h-3zM982 22h3v3h-3zM982 102h3v3h-3zM22 142h3v3h-3zM22 222h3v3h-3zM42 102h3v3h-3zM62 62h3v3h-3zM82 102h3v3h-3zM82 122h3v3h-3zM102 22h3v3h-3zM102 142h3v3h-3zM102 282h3v3h-3zM122 122h3v3h-3zM122 162h3v3h-3zM122 202h3v3h-3zM142 82h3v3h-3zM182 102h3v3h-3zM182 302h3v3h-3zM222 262h3v3h-3zM242 122h3v3h-3zM242 142h3v3h-3zM242 222h3v3h-3zM242 282h3v3h-3zM262 2h3v3h-3zM262 242h3v3h-3zM282 42h3v3h-3zM282 182h3v3h-3zM302 282h3v3h-3zM322 42h3v3h-3zM322 82h3v3h-3zM322 182h3v3h-3zM342 202h3v3h-3zM342 282h3v3h-3zM362 242h3v3h-3zM362 282h3v3h-3zM402 202h3v3h-3zM402 282h3v3h-3zM422 2h3v3h-3zM422 42h3v3h-3zM422 122h3v3h-3zM442 2h3v3h-3zM442 42h3v3h-3zM442 102h3v3h-3zM442 122h3v3h-3zM462 122h3v3h-3zM462 202h3v3h-3zM462 242h3v3h-3zM502 22h3v3h-3zM502 282h3v3h-3zM542 2h3v3h-3zM542 302h3v3h-3zM562 142h3v3h-3zM562 222h3v3h-3zM562 242h3v3h-3zM602 2h3v3h-3zM602 122h3v3h-3zM622 22h3v3h-3zM622 122h3v3h-3zM622 242h3v3h-3zM642 62h3v3h-3zM662 122h3v3h-3zM662 222h3v3h-3zM682 262h3v3h-3zM702 102h3v3h-3zM702 182h3v3h-3zM702 222h3v3h-3zM742 82h3v3h-3zM742 142h3v3h-3zM742 182h3v3h-3zM762 242h3v3h-3zM782 142h3v3h-3zM802 2h3v3h-3zM802 22h3v3h-3zM802 142h3v3h-3zM822 122h3v3h-3zM842 2h3v3h-3zM842 182h3v3h-3zM862 82h3v3h-3zM862 202h3v3h-3zM862 242h3v3h-3zM922 42h3v3h-3zM962 142h3v3h-3zM982 42h3v3h-3zM982 62h3v3h-3zM42 22h3v3h-3zM42 82h3v3h-3zM42 142h3v3h-3zM102 262h3v3h-3zM122 22h3v3h-3zM122 82h3v3h-3zM122 182h3v3h-3zM142 282h3v3h-3zM182 42h3v3h-3zM202 122h3v3h-3zM202 222h3v3h-3zM222 2h3v3h-3zM222 82h3v3h-3zM222 182h3v3h-3zM222 282h3v3h-3zM242 302h3v3h-3zM282 62h3v3h-3zM282 122h3v3h-3zM282 202h3v3h-3zM282 282h3v3h-3zM322 102h3v3h-3zM342 142h3v3h-3zM362 102h3v3h-3zM382 262h3v3h-3zM402 242h3v3h-3zM422 242h3v3h-3zM422 262h3v3h-3zM462 2h3v3h-3zM462 182h3v3h-3zM482 42h3v3h-3zM482 82h3v3h-3zM482 142h3v3h-3zM482 202h3v3h-3zM502 202h3v3h-3zM522 82h3v3h-3zM542 122h3v3h-3zM562 2h3v3h-3zM562 42h3v3h-3zM562 282h3v3h-3zM602 162h3v3h-3zM602 202h3v3h-3zM622 142h3v3h-3zM622 182h3v3h-3zM642 122h3v3h-3zM642 302h3v3h-3zM662 182h3v3h-3zM682 62h3v3h-3zM682 302h3v3h-3zM722 22h3v3h-3zM722 42h3v3h-3zM722 82h3v3h-3zM722 122h3v3h-3zM722 262h3v3h-3zM742 62h3v3h-3zM742 242h3v3h-3zM742 282h3v3h-3zM762 102h3v3h-3zM782 62h3v3h-3zM842 162h3v3h-3zM862 102h3v3h-3zM882 122h3v3h-3zM882 202h3v3h-3zM922 22h3v3h-3zM922 142h3v3h-3zM922 162h3v3h-3zM922 182h3v3h-3zM942 42h3v3h-3zM942 182h3v3h-3zM942 282h3v3h-3zM962 2h3v3h-3zM982 122h3v3h-3z" opacity="0.3" />
        <path d="M22 302h3v3h-3zM42 62h3v3h-3zM62 102h3v3h-3zM62 222h3v3h-3zM82 182h3v3h-3zM102 2h3v3h-3zM102 42h3v3h-3zM102 122h3v3h-3zM122 2h3v3h-3zM142 2h3v3h-3zM142 182h3v3h-3zM142 202h3v3h-3zM162 262h3v3h-3zM182 22h3v3h-3zM262 222h3v3h-3zM282 242h3v3h-3zM302 242h3v3h-3zM322 262h3v3h-3zM342 62h3v3h-3zM342 182h3v3h-3zM342 302h3v3h-3zM382 162h3v3h-3zM402 42h3v3h-3zM422 62h3v3h-3zM422 82h3v3h-3zM422 162h3v3h-3zM422 202h3v3h-3zM442 162h3v3h-3zM442 242h3v3h-3zM442 262h3v3h-3zM462 22h3v3h-3zM462 102h3v3h-3zM482 122h3v3h-3zM482 242h3v3h-3zM502 302h3v3h-3zM522 2h3v3h-3zM522 42h3v3h-3zM542 82h3v3h-3zM542 222h3v3h-3zM582 62h3v3h-3zM582 182h3v3h-3zM582 262h3v3h-3zM602 82h3v3h-3zM602 302h3v3h-3zM662 2h3v3h-3zM662 42h3v3h-3zM662 102h3v3h-3zM682 122h3v3h-3zM682 142h3v3h-3zM702 22h3v3h-3zM702 282h3v3h-3zM722 182h3v3h-3zM722 282h3v3h-3zM762 282h3v3h-3zM782 42h3v3h-3zM802 282h3v3h-3zM822 142h3v3h-3zM842 42h3v3h-3zM842 62h3v3h-3zM882 162h3v3h-3zM882 182h3v3h-3zM882 282h3v3h-3zM902 302h3v3h-3zM922 2h3v3h-3zM922 82h3v3h-3zM922 302h3v3h-3zM942 162h3v3h-3zM982 182h3v3h-3zM982 282h3v3h-3zM982 302h3v3h-3zM22 2h3v3h-3zM22 62h3v3h-3zM22 82h3v3h-3zM22 102h3v3h-3zM22 162h3v3h-3zM22 282h3v3h-3zM42 2h3v3h-3zM42 202h3v3h-3zM42 242h3v3h-3zM62 22h3v3h-3zM82 42h3v3h-3zM82 262h3v3h-3zM102 202h3v3h-3zM102 222h3v3h-3zM142 162h3v3h-3zM162 62h3v3h-3zM162 122h3v3h-3zM162 202h3v3h-3zM202 42h3v3h-3zM202 82h3v3h-3zM222 62h3v3h-3zM262 22h3v3h-3zM282 142h3v3h-3zM282 162h3v3h-3zM302 102h3v3h-3zM322 202h3v3h-3zM322 302h3v3h-3zM362 162h3v3h-3zM402 22h3v3h-3zM402 162h3v3h-3zM442 22h3v3h-3zM442 182h3v3h-3zM462 82h3v3h-3zM462 162h3v3h-3zM462 222h3v3h-3zM502 62h3v3h-3zM502 262h3v3h-3zM522 22h3v3h-3zM522 182h3v3h-3zM522 282h3v3h-3zM542 262h3v3h-3zM562 62h3v3h-3zM582 82h3v3h-3zM582 102h3v3h-3zM582 162h3v3h-3zM602 22h3v3h-3zM622 2h3v3h-3zM622 102h3v3h-3zM642 162h3v3h-3zM642 222h3v3h-3zM642 282h3v3h-3zM662 22h3v3h-3zM662 62h3v3h-3zM662 202h3v3h-3zM682 82h3v3h-3zM682 182h3v3h-3zM682 242h3v3h-3zM722 202h3v3h-3zM722 222h3v3h-3zM762 222h3v3h-3zM782 2h3v3h-3zM782 242h3v3h-3zM822 2h3v3h-3zM822 162h3v3h-3zM842 242h3v3h-3zM842 262h3v3h-3zM882 42h3v3h-3zM902 22h3v3h-3zM922 62h3v3h-3zM922 242h3v3h-3zM942 62h3v3h-3zM962 82h3v3h-3zM962 222h3v3h-3zM982 162h3v3h-3zM982 262h3v3h-3zM42 282h3v3h-3zM62 122h3v3h-3zM62 142h3v3h-3zM62 262h3v3h-3zM122 282h3v3h-3zM142 42h3v3h-3zM162 162h3v3h-3zM182 62h3v3h-3zM182 222h3v3h-3zM202 62h3v3h-3zM202 142h3v3h-3zM202 242h3v3h-3zM202 262h3v3h-3zM202 282h3v3h-3zM242 242h3v3h-3zM262 62h3v3h-3zM262 122h3v3h-3zM302 142h3v3h-3zM302 162h3v3h-3zM302 202h3v3h-3zM302 262h3v3h-3zM322 62h3v3h-3zM382 102h3v3h-3zM382 142h3v3h-3zM382 182h3v3h-3zM402 2h3v3h-3zM402 182h3v3h-3zM402 302h3v3h-3zM422 182h3v3h-3zM442 142h3v3h-3zM442 202h3v3h-3zM442 282h3v3h-3zM482 22h3v3h-3zM502 142h3v3h-3zM502 162h3v3h-3zM522 202h3v3h-3zM542 202h3v3h-3zM562 122h3v3h-3zM562 162h3v3h-3zM562 182h3v3h-3zM562 262h3v3h-3zM582 202h3v3h-3zM582 302h3v3h-3zM602 42h3v3h-3zM602 242h3v3h-3zM642 2h3v3h-3zM642 202h3v3h-3zM642 262h3v3h-3zM682 202h3v3h-3zM702 122h3v3h-3zM702 202h3v3h-3zM742 102h3v3h-3zM762 2h3v3h-3zM762 22h3v3h-3zM762 62h3v3h-3zM762 122h3v3h-3zM782 122h3v3h-3zM782 162h3v3h-3zM782 202h3v3h-3zM802 42h3v3h-3zM802 82h3v3h-3zM802 222h3v3h-3zM802 302h3v3h-3zM822 82h3v3h-3zM822 262h3v3h-3zM842 102h3v3h-3zM842 202h3v3h-3zM862 162h3v3h-3zM862 182h3v3h-3zM882 62h3v3h-3zM902 182h3v3h-3zM922 102h3v3h-3zM922 262h3v3h-3zM942 22h3v3h-3zM942 82h3v3h-3zM942 142h3v3h-3zM942 242h3v3h-3zM962 62h3v3h-3zM962 162h3v3h-3zM962 282h3v3h-3zM982 82h3v3h-3z" opacity="0.5" />
        <path d="M22 42h3v3h-3zM42 122h3v3h-3zM42 182h3v3h-3zM82 82h3v3h-3zM82 242h3v3h-3zM102 82h3v3h-3zM102 102h3v3h-3zM122 102h3v3h-3zM142 122h3v3h-3zM142 142h3v3h-3zM142 242h3v3h-3zM142 262h3v3h-3zM142 302h3v3h-3zM162 2h3v3h-3zM162 22h3v3h-3zM162 302h3v3h-3zM182 282h3v3h-3zM202 302h3v3h-3zM222 22h3v3h-3zM222 202h3v3h-3zM222 302h3v3h-3zM262 42h3v3h-3zM262 262h3v3h-3zM282 2h3v3h-3zM282 302h3v3h-3zM322 22h3v3h-3zM322 122h3v3h-3zM342 82h3v3h-3zM342 262h3v3h-3zM382 122h3v3h-3zM402 102h3v3h-3zM402 142h3v3h-3zM442 222h3v3h-3zM462 262h3v3h-3zM482 282h3v3h-3zM502 42h3v3h-3zM522 222h3v3h-3zM542 62h3v3h-3zM562 82h3v3h-3zM582 22h3v3h-3zM602 262h3v3h-3zM602 282h3v3h-3zM622 82h3v3h-3zM662 82h3v3h-3zM682 42h3v3h-3zM682 102h3v3h-3zM682 162h3v3h-3zM702 162h3v3h-3zM702 302h3v3h-3zM722 102h3v3h-3zM742 162h3v3h-3zM762 42h3v3h-3zM762 182h3v3h-3zM762 202h3v3h-3zM782 262h3v3h-3zM802 162h3v3h-3zM802 182h3v3h-3zM802 262h3v3h-3zM822 22h3v3h-3zM822 102h3v3h-3zM822 242h3v3h-3zM822 302h3v3h-3zM842 82h3v3h-3zM862 62h3v3h-3zM882 22h3v3h-3zM882 142h3v3h-3zM882 262h3v3h-3zM902 62h3v3h-3zM942 202h3v3h-3zM942 262h3v3h-3zM942 302h3v3h-3zM22 242h3v3h-3zM22 262h3v3h-3zM42 162h3v3h-3zM42 222h3v3h-3zM42 262h3v3h-3zM42 302h3v3h-3zM62 202h3v3h-3zM62 302h3v3h-3zM82 22h3v3h-3zM82 62h3v3h-3zM82 302h3v3h-3zM102 162h3v3h-3zM122 222h3v3h-3zM162 82h3v3h-3zM182 162h3v3h-3zM202 182h3v3h-3zM222 122h3v3h-3zM222 162h3v3h-3zM222 222h3v3h-3zM242 102h3v3h-3zM242 182h3v3h-3zM262 202h3v3h-3zM282 82h3v3h-3zM302 2h3v3h-3zM302 62h3v3h-3zM302 222h3v3h-3zM342 22h3v3h-3zM362 82h3v3h-3zM382 2h3v3h-3zM382 22h3v3h-3zM382 42h3v3h-3zM382 202h3v3h-3zM382 242h3v3h-3zM402 262h3v3h-3zM422 22h3v3h-3zM442 62h3v3h-3zM462 42h3v3h-3zM462 282h3v3h-3zM482 102h3v3h-3zM482 262h3v3h-3zM502 222h3v3h-3zM522 62h3v3h-3zM542 142h3v3h-3zM582 122h3v3h-3zM582 142h3v3h-3zM582 242h3v3h-3zM622 202h3v3h-3zM622 222h3v3h-3zM642 22h3v3h-3zM642 102h3v3h-3zM642 142h3v3h-3zM662 242h3v3h-3zM682 2h3v3h-3zM702 82h3v3h-3zM702 242h3v3h-3zM742 42h3v3h-3zM742 302h3v3h-3zM762 82h3v3h-3zM762 302h3v3h-3zM782 302h3v3h-3zM802 242h3v3h-3zM842 142h3v3h-3zM862 22h3v3h-3zM902 162h3v3h-3zM942 222h3v3h-3zM982 2h3v3h-3zM982 242h3v3h-3zM22 122h3v3h-3zM62 182h3v3h-3zM82 142h3v3h-3zM82 162h3v3h-3zM82 222h3v3h-3zM102 302h3v3h-3zM122 42h3v3h-3zM122 142h3v3h-3zM122 302h3v3h-3zM162 102h3v3h-3zM162 142h3v3h-3zM182 122h3v3h-3zM182 182h3v3h-3zM182 202h3v3h-3zM182 242h3v3h-3zM182 262h3v3h-3zM202 2h3v3h-3zM202 22h3v3h-3zM222 42h3v3h-3zM242 2h3v3h-3zM242 42h3v3h-3zM262 162h3v3h-3zM262 302h3v3h-3zM282 222h3v3h-3zM282 262h3v3h-3zM302 42h3v3h-3zM322 242h3v3h-3zM342 42h3v3h-3zM342 222h3v3h-3zM342 242h3v3h-3zM362 22h3v3h-3zM362 62h3v3h-3zM362 122h3v3h-3zM382 222h3v3h-3zM382 282h3v3h-3zM402 82h3v3h-3zM422 302h3v3h-3zM462 62h3v3h-3zM482 2h3v3h-3zM482 182h3v3h-3zM502 82h3v3h-3zM522 102h3v3h-3zM522 162h3v3h-3zM522 242h3v3h-3zM522 262h3v3h-3zM542 102h3v3h-3zM542 182h3v3h-3zM582 222h3v3h-3zM602 182h3v3h-3zM602 222h3v3h-3zM622 162h3v3h-3zM622 262h3v3h-3zM642 42h3v3h-3zM682 282h3v3h-3zM702 262h3v3h-3zM722 2h3v3h-3zM722 162h3v3h-3zM722 302h3v3h-3zM742 22h3v3h-3zM742 122h3v3h-3zM742 202h3v3h-3zM742 222h3v3h-3zM762 162h3v3h-3zM762 262h3v3h-3zM782 82h3v3h-3zM782 222h3v3h-3zM802 202h3v3h-3zM822 42h3v3h-3zM822 62h3v3h-3zM822 282h3v3h-3zM842 222h3v3h-3zM842 302h3v3h-3zM862 122h3v3h-3zM862 282h3v3h-3zM882 302h3v3h-3zM902 2h3v3h-3zM902 42h3v3h-3zM902 102h3v3h-3zM902 202h3v3h-3zM902 222h3v3h-3zM902 242h3v3h-3zM902 282h3v3h-3zM922 282h3v3h-3zM942 102h3v3h-3zM942 122h3v3h-3zM962 122h3v3h-3zM962 202h3v3h-3zM962 242h3v3h-3zM962 262h3v3h-3zM982 202h3v3h-3z" opacity="0.8" />
        <path d="M22 22h3v3h-3zM62 282h3v3h-3zM82 2h3v3h-3zM82 202h3v3h-3zM102 62h3v3h-3zM102 242h3v3h-3zM122 262h3v3h-3zM142 22h3v3h-3zM162 222h3v3h-3zM182 2h3v3h-3zM182 82h3v3h-3zM182 142h3v3h-3zM202 102h3v3h-3zM202 202h3v3h-3zM222 102h3v3h-3zM242 82h3v3h-3zM262 82h3v3h-3zM262 102h3v3h-3zM262 142h3v3h-3zM262 182h3v3h-3zM282 22h3v3h-3zM282 102h3v3h-3zM302 22h3v3h-3zM302 82h3v3h-3zM302 182h3v3h-3zM302 302h3v3h-3zM322 222h3v3h-3zM342 2h3v3h-3zM342 102h3v3h-3zM362 42h3v3h-3zM362 202h3v3h-3zM362 262h3v3h-3zM382 82h3v3h-3zM382 302h3v3h-3zM402 62h3v3h-3zM402 222h3v3h-3zM422 102h3v3h-3zM422 222h3v3h-3zM422 282h3v3h-3zM462 302h3v3h-3zM482 302h3v3h-3zM502 2h3v3h-3zM502 122h3v3h-3zM522 302h3v3h-3zM542 22h3v3h-3zM562 22h3v3h-3zM582 282h3v3h-3zM602 142h3v3h-3zM622 42h3v3h-3zM642 182h3v3h-3zM662 142h3v3h-3zM662 162h3v3h-3zM662 262h3v3h-3zM662 282h3v3h-3zM662 302h3v3h-3zM682 22h3v3h-3zM682 222h3v3h-3zM702 2h3v3h-3zM702 142h3v3h-3zM722 242h3v3h-3zM742 2h3v3h-3zM742 262h3v3h-3zM782 22h3v3h-3zM782 102h3v3h-3zM782 182h3v3h-3zM802 122h3v3h-3zM842 22h3v3h-3zM842 122h3v3h-3zM862 2h3v3h-3zM862 262h3v3h-3zM862 302h3v3h-3zM882 222h3v3h-3zM882 242h3v3h-3zM902 82h3v3h-3zM902 122h3v3h-3zM922 202h3v3h-3zM962 42h3v3h-3zM962 182h3v3h-3zM962 302h3v3h-3zM982 142h3v3h-3zM982 222h3v3h-3z" opacity="1" />
      </g>
      <g class="f f1">
        <path d="M2 2h3v3h-3zM2 22h3v3h-3zM2 42h3v3h-3zM2 62h3v3h-3zM2 82h3v3h-3zM2 102h3v3h-3zM2 122h3v3h-3zM2 142h3v3h-3zM2 162h3v3h-3zM2 182h3v3h-3zM2 202h3v3h-3zM2 222h3v3h-3zM2 242h3v3h-3zM2 262h3v3h-3zM2 282h3v3h-3zM2 302h3v3h-3zM22 242h3v3h-3zM62 202h3v3h-3zM82 102h3v3h-3zM82 262h3v3h-3zM102 82h3v3h-3zM102 202h3v3h-3zM122 202h3v3h-3zM122 222h3v3h-3zM142 182h3v3h-3zM162 302h3v3h-3zM182 182h3v3h-3zM182 242h3v3h-3zM202 302h3v3h-3zM222 142h3v3h-3zM242 2h3v3h-3zM242 22h3v3h-3zM242 122h3v3h-3zM242 162h3v3h-3zM242 182h3v3h-3zM242 302h3v3h-3zM262 22h3v3h-3zM282 202h3v3h-3zM282 282h3v3h-3zM282 302h3v3h-3zM302 2h3v3h-3zM302 122h3v3h-3zM302 242h3v3h-3zM322 2h3v3h-3zM342 162h3v3h-3zM342 262h3v3h-3zM362 2h3v3h-3zM382 142h3v3h-3zM382 262h3v3h-3zM382 282h3v3h-3zM402 282h3v3h-3zM422 102h3v3h-3zM422 242h3v3h-3zM422 282h3v3h-3zM442 102h3v3h-3zM462 2h3v3h-3zM462 142h3v3h-3zM482 62h3v3h-3zM482 162h3v3h-3zM522 162h3v3h-3zM542 42h3v3h-3zM542 242h3v3h-3zM562 42h3v3h-3zM562 62h3v3h-3zM582 202h3v3h-3zM602 122h3v3h-3zM602 302h3v3h-3zM622 142h3v3h-3zM622 182h3v3h-3zM622 262h3v3h-3zM622 302h3v3h-3zM642 142h3v3h-3zM642 222h3v3h-3zM662 22h3v3h-3zM662 162h3v3h-3zM662 182h3v3h-3zM662 202h3v3h-3zM682 182h3v3h-3zM702 22h3v3h-3zM702 302h3v3h-3zM722 182h3v3h-3zM742 22h3v3h-3zM742 182h3v3h-3zM762 182h3v3h-3zM762 222h3v3h-3zM762 262h3v3h-3zM782 22h3v3h-3zM782 82h3v3h-3zM782 142h3v3h-3zM802 22h3v3h-3zM802 62h3v3h-3zM822 282h3v3h-3zM862 82h3v3h-3zM862 122h3v3h-3zM902 2h3v3h-3zM902 42h3v3h-3zM902 282h3v3h-3zM922 102h3v3h-3zM922 142h3v3h-3zM922 202h3v3h-3zM942 62h3v3h-3zM962 2h3v3h-3zM962 62h3v3h-3zM962 182h3v3h-3zM962 202h3v3h-3zM962 282h3v3h-3zM22 102h3v3h-3zM42 62h3v3h-3zM42 142h3v3h-3zM42 182h3v3h-3zM62 2h3v3h-3zM82 82h3v3h-3zM102 102h3v3h-3zM102 162h3v3h-3zM102 222h3v3h-3zM102 242h3v3h-3zM102 282h3v3h-3zM122 182h3v3h-3zM142 82h3v3h-3zM142 262h3v3h-3zM162 222h3v3h-3zM182 102h3v3h-3zM182 222h3v3h-3zM202 102h3v3h-3zM222 202h3v3h-3zM222 222h3v3h-3zM242 62h3v3h-3zM242 202h3v3h-3zM242 282h3v3h-3zM262 162h3v3h-3zM282 62h3v3h-3zM282 82h3v3h-3zM282 122h3v3h-3zM282 162h3v3h-3zM302 42h3v3h-3zM302 202h3v3h-3zM342 82h3v3h-3zM342 142h3v3h-3zM342 282h3v3h-3zM362 82h3v3h-3zM362 182h3v3h-3zM362 202h3v3h-3zM382 102h3v3h-3zM402 82h3v3h-3zM402 162h3v3h-3zM462 302h3v3h-3zM482 42h3v3h-3zM482 282h3v3h-3zM502 2h3v3h-3zM502 42h3v3h-3zM502 102h3v3h-3zM502 162h3v3h-3zM502 222h3v3h-3zM522 102h3v3h-3zM522 262h3v3h-3zM542 22h3v3h-3zM542 282h3v3h-3zM622 222h3v3h-3zM642 182h3v3h-3zM662 102h3v3h-3zM662 242h3v3h-3zM682 62h3v3h-3zM702 2h3v3h-3zM722 162h3v3h-3zM782 102h3v3h-3zM782 182h3v3h-3zM802 302h3v3h-3zM822 22h3v3h-3zM822 122h3v3h-3zM842 42h3v3h-3zM842 122h3v3h-3zM862 2h3v3h-3zM862 142h3v3h-3zM882 282h3v3h-3zM902 22h3v3h-3zM902 222h3v3h-3zM922 82h3v3h-3zM942 222h3v3h-3zM982 162h3v3h-3zM982 302h3v3h-3zM22 82h3v3h-3zM22 182h3v3h-3zM22 222h3v3h-3zM62 82h3v3h-3zM82 62h3v3h-3zM82 142h3v3h-3zM102 122h3v3h-3zM102 302h3v3h-3zM142 222h3v3h-3zM182 122h3v3h-3zM202 162h3v3h-3zM202 242h3v3h-3zM202 262h3v3h-3zM222 22h3v3h-3zM222 282h3v3h-3zM242 102h3v3h-3zM242 262h3v3h-3zM262 2h3v3h-3zM262 122h3v3h-3zM302 82h3v3h-3zM302 142h3v3h-3zM302 282h3v3h-3zM302 302h3v3h-3zM322 122h3v3h-3zM342 22h3v3h-3zM342 302h3v3h-3zM362 142h3v3h-3zM362 242h3v3h-3zM402 142h3v3h-3zM442 122h3v3h-3zM442 142h3v3h-3zM442 222h3v3h-3zM462 82h3v3h-3zM482 22h3v3h-3zM482 82h3v3h-3zM482 202h3v3h-3zM482 262h3v3h-3zM522 42h3v3h-3zM522 222h3v3h-3zM542 102h3v3h-3zM542 162h3v3h-3zM542 202h3v3h-3zM582 122h3v3h-3zM582 302h3v3h-3zM602 102h3v3h-3zM602 282h3v3h-3zM622 62h3v3h-3zM622 162h3v3h-3zM642 22h3v3h-3zM642 162h3v3h-3zM682 262h3v3h-3zM702 262h3v3h-3zM722 2h3v3h-3zM722 262h3v3h-3zM742 62h3v3h-3zM762 162h3v3h-3zM762 242h3v3h-3zM762 282h3v3h-3zM802 2h3v3h-3zM802 122h3v3h-3zM802 142h3v3h-3zM802 242h3v3h-3zM822 262h3v3h-3zM842 22h3v3h-3zM842 62h3v3h-3zM842 102h3v3h-3zM842 262h3v3h-3zM862 102h3v3h-3zM862 182h3v3h-3zM862 222h3v3h-3zM862 242h3v3h-3zM882 2h3v3h-3zM882 102h3v3h-3zM882 162h3v3h-3zM902 242h3v3h-3zM922 222h3v3h-3zM922 262h3v3h-3zM962 142h3v3h-3zM982 22h3v3h-3zM982 242h3v3h-3z" opacity="0.3" />
        <path d="M22 2h3v3h-3zM22 62h3v3h-3zM22 122h3v3h-3zM22 162h3v3h-3zM42 82h3v3h-3zM42 302h3v3h-3zM82 2h3v3h-3zM82 282h3v3h-3zM82 302h3v3h-3zM102 2h3v3h-3zM102 142h3v3h-3zM102 182h3v3h-3zM122 62h3v3h-3zM122 82h3v3h-3zM142 2h3v3h-3zM142 102h3v3h-3zM142 142h3v3h-3zM142 202h3v3h-3zM142 242h3v3h-3zM162 202h3v3h-3zM162 262h3v3h-3zM162 282h3v3h-3zM182 2h3v3h-3zM182 142h3v3h-3zM182 262h3v3h-3zM182 282h3v3h-3zM202 62h3v3h-3zM202 222h3v3h-3zM222 2h3v3h-3zM222 42h3v3h-3zM222 82h3v3h-3zM262 62h3v3h-3zM262 182h3v3h-3zM262 242h3v3h-3zM262 262h3v3h-3zM282 42h3v3h-3zM302 162h3v3h-3zM362 122h3v3h-3zM362 302h3v3h-3zM382 2h3v3h-3zM402 62h3v3h-3zM402 102h3v3h-3zM402 202h3v3h-3zM402 302h3v3h-3zM422 2h3v3h-3zM442 2h3v3h-3zM462 22h3v3h-3zM462 122h3v3h-3zM462 222h3v3h-3zM522 242h3v3h-3zM542 2h3v3h-3zM542 142h3v3h-3zM562 2h3v3h-3zM562 82h3v3h-3zM562 162h3v3h-3zM562 182h3v3h-3zM562 202h3v3h-3zM562 262h3v3h-3zM582 22h3v3h-3zM582 102h3v3h-3zM622 122h3v3h-3zM642 42h3v3h-3zM642 282h3v3h-3zM682 142h3v3h-3zM682 162h3v3h-3zM682 222h3v3h-3zM682 242h3v3h-3zM682 282h3v3h-3zM722 22h3v3h-3zM722 222h3v3h-3zM742 142h3v3h-3zM742 242h3v3h-3zM742 302h3v3h-3zM762 202h3v3h-3zM782 122h3v3h-3zM782 162h3v3h-3zM782 262h3v3h-3zM802 162h3v3h-3zM802 182h3v3h-3zM822 62h3v3h-3zM842 2h3v3h-3zM862 162h3v3h-3zM882 82h3v3h-3zM882 122h3v3h-3zM882 142h3v3h-3zM902 162h3v3h-3zM942 102h3v3h-3zM942 242h3v3h-3zM982 2h3v3h-3zM22 42h3v3h-3zM22 262h3v3h-3zM22 282h3v3h-3zM22 302h3v3h-3zM42 222h3v3h-3zM62 62h3v3h-3zM62 162h3v3h-3zM62 222h3v3h-3zM62 262h3v3h-3zM122 102h3v3h-3zM122 302h3v3h-3zM142 22h3v3h-3zM162 22h3v3h-3zM162 62h3v3h-3zM182 22h3v3h-3zM182 302h3v3h-3zM202 282h3v3h-3zM222 302h3v3h-3zM262 222h3v3h-3zM262 302h3v3h-3zM282 222h3v3h-3zM282 242h3v3h-3zM302 262h3v3h-3zM322 22h3v3h-3zM322 62h3v3h-3zM322 82h3v3h-3zM322 142h3v3h-3zM322 262h3v3h-3zM342 62h3v3h-3zM382 122h3v3h-3zM382 242h3v3h-3zM402 122h3v3h-3zM402 222h3v3h-3zM422 162h3v3h-3zM422 222h3v3h-3zM442 262h3v3h-3zM482 102h3v3h-3zM502 82h3v3h-3zM502 242h3v3h-3zM522 82h3v3h-3zM522 142h3v3h-3zM622 242h3v3h-3zM642 102h3v3h-3zM662 262h3v3h-3zM662 302h3v3h-3zM702 202h3v3h-3zM702 222h3v3h-3zM722 282h3v3h-3zM742 122h3v3h-3zM742 282h3v3h-3zM762 22h3v3h-3zM762 42h3v3h-3zM762 62h3v3h-3zM782 2h3v3h-3zM782 202h3v3h-3zM802 262h3v3h-3zM822 82h3v3h-3zM822 102h3v3h-3zM822 222h3v3h-3zM822 302h3v3h-3zM842 182h3v3h-3zM842 282h3v3h-3zM862 62h3v3h-3zM862 282h3v3h-3zM862 302h3v3h-3zM882 62h3v3h-3zM882 202h3v3h-3zM902 302h3v3h-3zM922 62h3v3h-3zM942 22h3v3h-3zM942 82h3v3h-3zM942 302h3v3h-3zM962 42h3v3h-3zM962 162h3v3h-3zM982 122h3v3h-3zM22 22h3v3h-3zM42 102h3v3h-3zM62 102h3v3h-3zM62 302h3v3h-3zM82 202h3v3h-3zM122 2h3v3h-3zM122 142h3v3h-3zM122 162h3v3h-3zM122 242h3v3h-3zM142 42h3v3h-3zM162 2h3v3h-3zM162 82h3v3h-3zM202 42h3v3h-3zM202 182h3v3h-3zM202 202h3v3h-3zM222 262h3v3h-3zM242 242h3v3h-3zM262 282h3v3h-3zM282 262h3v3h-3zM322 102h3v3h-3zM322 202h3v3h-3zM342 102h3v3h-3zM342 122h3v3h-3zM342 202h3v3h-3zM362 42h3v3h-3zM382 82h3v3h-3zM382 182h3v3h-3zM382 202h3v3h-3zM382 222h3v3h-3zM402 182h3v3h-3zM422 82h3v3h-3zM422 122h3v3h-3zM422 202h3v3h-3zM442 242h3v3h-3zM442 282h3v3h-3zM482 242h3v3h-3zM502 142h3v3h-3zM502 202h3v3h-3zM502 262h3v3h-3zM522 202h3v3h-3zM522 302h3v3h-3zM542 262h3v3h-3zM562 122h3v3h-3zM562 282h3v3h-3zM582 182h3v3h-3zM622 82h3v3h-3zM622 282h3v3h-3zM642 202h3v3h-3zM642 242h3v3h-3zM642 262h3v3h-3zM662 122h3v3h-3zM682 122h3v3h-3zM722 62h3v3h-3zM722 242h3v3h-3zM722 302h3v3h-3zM742 102h3v3h-3zM742 162h3v3h-3zM782 242h3v3h-3zM802 222h3v3h-3zM802 282h3v3h-3zM822 42h3v3h-3zM842 142h3v3h-3zM882 42h3v3h-3zM902 142h3v3h-3zM942 122h3v3h-3zM942 142h3v3h-3zM942 262h3v3h-3zM962 262h3v3h-3zM982 142h3v3h-3zM982 222h3v3h-3zM982 282h3v3h-3z" opacity="0.5" />
        <path d="M22 142h3v3h-3zM22 202h3v3h-3zM42 2h3v3h-3zM42 42h3v3h-3zM42 122h3v3h-3zM42 162h3v3h-3zM42 242h3v3h-3zM62 42h3v3h-3zM62 122h3v3h-3zM122 262h3v3h-3zM142 62h3v3h-3zM142 122h3v3h-3zM162 42h3v3h-3zM222 62h3v3h-3zM222 122h3v3h-3zM222 162h3v3h-3zM242 42h3v3h-3zM242 82h3v3h-3zM262 102h3v3h-3zM282 102h3v3h-3zM282 182h3v3h-3zM322 42h3v3h-3zM342 2h3v3h-3zM362 62h3v3h-3zM362 102h3v3h-3zM362 162h3v3h-3zM362 222h3v3h-3zM362 262h3v3h-3zM402 42h3v3h-3zM422 302h3v3h-3zM442 42h3v3h-3zM442 202h3v3h-3zM462 62h3v3h-3zM482 222h3v3h-3zM502 22h3v3h-3zM502 62h3v3h-3zM502 282h3v3h-3zM522 182h3v3h-3zM522 282h3v3h-3zM542 82h3v3h-3zM542 122h3v3h-3zM562 102h3v3h-3zM562 222h3v3h-3zM562 302h3v3h-3zM582 82h3v3h-3zM582 142h3v3h-3zM582 222h3v3h-3zM582 262h3v3h-3zM602 22h3v3h-3zM602 62h3v3h-3zM602 262h3v3h-3zM622 2h3v3h-3zM642 122h3v3h-3zM662 62h3v3h-3zM682 82h3v3h-3zM682 102h3v3h-3zM702 182h3v3h-3zM702 242h3v3h-3zM702 282h3v3h-3zM722 102h3v3h-3zM742 42h3v3h-3zM742 82h3v3h-3zM762 102h3v3h-3zM762 122h3v3h-3zM782 302h3v3h-3zM822 2h3v3h-3zM822 162h3v3h-3zM842 162h3v3h-3zM842 302h3v3h-3zM882 262h3v3h-3zM942 2h3v3h-3zM982 42h3v3h-3zM982 102h3v3h-3zM42 202h3v3h-3zM62 142h3v3h-3zM62 242h3v3h-3zM82 42h3v3h-3zM82 162h3v3h-3zM122 282h3v3h-3zM142 162h3v3h-3zM142 302h3v3h-3zM162 122h3v3h-3zM162 142h3v3h-3zM162 182h3v3h-3zM162 242h3v3h-3zM182 202h3v3h-3zM202 142h3v3h-3zM262 82h3v3h-3zM262 202h3v3h-3zM282 142h3v3h-3zM302 182h3v3h-3zM302 222h3v3h-3zM322 282h3v3h-3zM362 22h3v3h-3zM362 282h3v3h-3zM382 42h3v3h-3zM422 22h3v3h-3zM422 142h3v3h-3zM422 182h3v3h-3zM422 262h3v3h-3zM442 62h3v3h-3zM442 162h3v3h-3zM462 182h3v3h-3zM462 262h3v3h-3zM482 2h3v3h-3zM502 302h3v3h-3zM522 62h3v3h-3zM542 182h3v3h-3zM542 302h3v3h-3zM562 142h3v3h-3zM562 242h3v3h-3zM582 42h3v3h-3zM602 82h3v3h-3zM602 242h3v3h-3zM622 22h3v3h-3zM622 42h3v3h-3zM622 202h3v3h-3zM642 82h3v3h-3zM662 82h3v3h-3zM662 282h3v3h-3zM702 142h3v3h-3zM702 162h3v3h-3zM722 42h3v3h-3zM722 82h3v3h-3zM742 222h3v3h-3zM762 302h3v3h-3zM782 282h3v3h-3zM802 42h3v3h-3zM822 202h3v3h-3zM842 222h3v3h-3zM842 242h3v3h-3zM862 262h3v3h-3zM882 182h3v3h-3zM882 302h3v3h-3zM902 102h3v3h-3zM902 122h3v3h-3zM902 262h3v3h-3zM922 2h3v3h-3zM922 22h3v3h-3zM922 122h3v3h-3zM922 242h3v3h-3zM962 102h3v3h-3zM962 222h3v3h-3zM982 262h3v3h-3zM42 22h3v3h-3zM62 282h3v3h-3zM82 122h3v3h-3zM82 222h3v3h-3zM82 242h3v3h-3zM102 22h3v3h-3zM102 42h3v3h-3zM102 62h3v3h-3zM102 262h3v3h-3zM122 42h3v3h-3zM122 122h3v3h-3zM142 282h3v3h-3zM162 102h3v3h-3zM162 162h3v3h-3zM182 42h3v3h-3zM182 62h3v3h-3zM182 162h3v3h-3zM202 2h3v3h-3zM202 22h3v3h-3zM202 82h3v3h-3zM202 122h3v3h-3zM222 102h3v3h-3zM222 182h3v3h-3zM242 222h3v3h-3zM282 2h3v3h-3zM282 22h3v3h-3zM302 22h3v3h-3zM302 102h3v3h-3zM322 162h3v3h-3zM322 242h3v3h-3zM322 302h3v3h-3zM342 182h3v3h-3zM382 22h3v3h-3zM382 62h3v3h-3zM382 302h3v3h-3zM402 2h3v3h-3zM442 22h3v3h-3zM442 82h3v3h-3zM442 182h3v3h-3zM462 42h3v3h-3zM462 102h3v3h-3zM462 202h3v3h-3zM462 242h3v3h-3zM462 282h3v3h-3zM482 122h3v3h-3zM522 2h3v3h-3zM542 62h3v3h-3zM542 222h3v3h-3zM562 22h3v3h-3zM582 2h3v3h-3zM582 162h3v3h-3zM582 282h3v3h-3zM602 2h3v3h-3zM602 42h3v3h-3zM602 162h3v3h-3zM602 182h3v3h-3zM622 102h3v3h-3zM642 302h3v3h-3zM662 2h3v3h-3zM662 42h3v3h-3zM682 22h3v3h-3zM682 42h3v3h-3zM682 202h3v3h-3zM682 302h3v3h-3zM702 62h3v3h-3zM702 82h3v3h-3zM702 122h3v3h-3zM722 122h3v3h-3zM722 142h3v3h-3zM722 202h3v3h-3zM742 2h3v3h-3zM742 202h3v3h-3zM762 82h3v3h-3zM762 142h3v3h-3zM802 82h3v3h-3zM802 102h3v3h-3zM802 202h3v3h-3zM822 142h3v3h-3zM822 182h3v3h-3zM822 242h3v3h-3zM842 82h3v3h-3zM862 42h3v3h-3zM882 22h3v3h-3zM902 62h3v3h-3zM902 82h3v3h-3zM922 42h3v3h-3zM922 162h3v3h-3zM922 182h3v3h-3zM922 282h3v3h-3zM942 162h3v3h-3zM942 182h3v3h-3zM942 282h3v3h-3zM962 122h3v3h-3zM962 242h3v3h-3zM982 82h3v3h-3zM982 182h3v3h-3zM982 202h3v3h-3z" opacity="0.8" />
        <path d="M42 262h3v3h-3zM42 282h3v3h-3zM62 22h3v3h-3zM62 182h3v3h-3zM82 22h3v3h-3zM82 182h3v3h-3zM122 22h3v3h-3zM182 82h3v3h-3zM222 242h3v3h-3zM242 142h3v3h-3zM262 42h3v3h-3zM262 142h3v3h-3zM302 62h3v3h-3zM322 182h3v3h-3zM322 222h3v3h-3zM342 42h3v3h-3zM342 222h3v3h-3zM342 242h3v3h-3zM382 162h3v3h-3zM402 22h3v3h-3zM402 242h3v3h-3zM402 262h3v3h-3zM422 42h3v3h-3zM422 62h3v3h-3zM442 302h3v3h-3zM462 162h3v3h-3zM482 142h3v3h-3zM482 182h3v3h-3zM482 302h3v3h-3zM502 122h3v3h-3zM502 182h3v3h-3zM522 22h3v3h-3zM522 122h3v3h-3zM582 62h3v3h-3zM582 242h3v3h-3zM602 142h3v3h-3zM602 202h3v3h-3zM602 222h3v3h-3zM642 2h3v3h-3zM642 62h3v3h-3zM662 142h3v3h-3zM662 222h3v3h-3zM682 2h3v3h-3zM702 42h3v3h-3zM702 102h3v3h-3zM742 262h3v3h-3zM762 2h3v3h-3zM782 42h3v3h-3zM782 62h3v3h-3zM782 222h3v3h-3zM842 202h3v3h-3zM862 22h3v3h-3zM862 202h3v3h-3zM882 222h3v3h-3zM882 242h3v3h-3zM902 182h3v3h-3zM902 202h3v3h-3zM922 302h3v3h-3zM942 42h3v3h-3zM942 202h3v3h-3zM962 22h3v3h-3zM962 82h3v3h-3zM962 302h3v3h-3zM982 62h3v3h-3z" opacity="1" />
      </g>
      <g class="f f2">
        <path d="M2 2h3v3h-3zM2 22h3v3h-3zM2 42h3v3h-3zM2 62h3v3h-3zM2 82h3v3h-3zM2 102h3v3h-3zM2 122h3v3h-3zM2 142h3v3h-3zM2 162h3v3h-3zM2 182h3v3h-3zM2 202h3v3h-3zM2 222h3v3h-3zM2 242h3v3h-3zM2 262h3v3h-3zM2 282h3v3h-3zM2 302h3v3h-3zM22 42h3v3h-3zM22 242h3v3h-3zM42 182h3v3h-3zM62 22h3v3h-3zM82 102h3v3h-3zM82 182h3v3h-3zM102 182h3v3h-3zM102 222h3v3h-3zM102 282h3v3h-3zM102 302h3v3h-3zM142 82h3v3h-3zM142 142h3v3h-3zM162 102h3v3h-3zM182 62h3v3h-3zM182 102h3v3h-3zM182 142h3v3h-3zM182 282h3v3h-3zM202 222h3v3h-3zM222 102h3v3h-3zM222 122h3v3h-3zM242 242h3v3h-3zM262 282h3v3h-3zM282 2h3v3h-3zM302 102h3v3h-3zM302 122h3v3h-3zM302 302h3v3h-3zM342 22h3v3h-3zM342 102h3v3h-3zM342 222h3v3h-3zM362 82h3v3h-3zM362 182h3v3h-3zM362 242h3v3h-3zM382 222h3v3h-3zM402 22h3v3h-3zM422 42h3v3h-3zM442 162h3v3h-3zM442 202h3v3h-3zM442 282h3v3h-3zM462 62h3v3h-3zM482 82h3v3h-3zM482 302h3v3h-3zM502 162h3v3h-3zM502 282h3v3h-3zM522 42h3v3h-3zM522 162h3v3h-3zM562 142h3v3h-3zM562 222h3v3h-3zM582 182h3v3h-3zM602 22h3v3h-3zM602 142h3v3h-3zM602 202h3v3h-3zM602 262h3v3h-3zM662 182h3v3h-3zM682 122h3v3h-3zM722 262h3v3h-3zM742 242h3v3h-3zM762 122h3v3h-3zM762 242h3v3h-3zM782 222h3v3h-3zM802 42h3v3h-3zM802 222h3v3h-3zM822 42h3v3h-3zM822 242h3v3h-3zM822 282h3v3h-3zM842 62h3v3h-3zM862 122h3v3h-3zM882 62h3v3h-3zM882 82h3v3h-3zM882 102h3v3h-3zM882 162h3v3h-3zM902 202h3v3h-3zM922 22h3v3h-3zM922 42h3v3h-3zM962 22h3v3h-3zM962 82h3v3h-3zM962 102h3v3h-3zM982 222h3v3h-3zM982 282h3v3h-3zM22 82h3v3h-3zM22 202h3v3h-3zM42 22h3v3h-3zM42 302h3v3h-3zM62 142h3v3h-3zM62 202h3v3h-3zM62 302h3v3h-3zM82 42h3v3h-3zM82 262h3v3h-3zM122 142h3v3h-3zM122 162h3v3h-3zM142 62h3v3h-3zM142 182h3v3h-3zM142 262h3v3h-3zM182 122h3v3h-3zM182 242h3v3h-3zM202 62h3v3h-3zM202 182h3v3h-3zM222 262h3v3h-3zM242 22h3v3h-3zM242 182h3v3h-3zM282 22h3v3h-3zM302 2h3v3h-3zM322 62h3v3h-3zM342 282h3v3h-3zM362 102h3v3h-3zM362 142h3v3h-3zM382 2h3v3h-3zM382 42h3v3h-3zM382 282h3v3h-3zM402 102h3v3h-3zM402 162h3v3h-3zM402 302h3v3h-3zM442 62h3v3h-3zM462 2h3v3h-3zM482 222h3v3h-3zM502 182h3v3h-3zM502 242h3v3h-3zM522 2h3v3h-3zM522 122h3v3h-3zM522 222h3v3h-3zM522 282h3v3h-3zM542 142h3v3h-3zM542 182h3v3h-3zM562 22h3v3h-3zM562 302h3v3h-3zM602 2h3v3h-3zM602 282h3v3h-3zM602 302h3v3h-3zM622 22h3v3h-3zM662 2h3v3h-3zM662 222h3v3h-3zM662 242h3v3h-3zM662 302h3v3h-3zM682 82h3v3h-3zM682 102h3v3h-3zM702 22h3v3h-3zM702 82h3v3h-3zM722 62h3v3h-3zM722 102h3v3h-3zM722 282h3v3h-3zM742 2h3v3h-3zM762 82h3v3h-3zM782 42h3v3h-3zM802 2h3v3h-3zM802 122h3v3h-3zM822 22h3v3h-3zM822 122h3v3h-3zM822 182h3v3h-3zM862 162h3v3h-3zM882 182h3v3h-3zM882 262h3v3h-3zM902 22h3v3h-3zM902 62h3v3h-3zM902 102h3v3h-3zM922 82h3v3h-3zM922 142h3v3h-3zM942 62h3v3h-3zM942 162h3v3h-3zM982 42h3v3h-3zM42 242h3v3h-3zM62 42h3v3h-3zM82 162h3v3h-3zM82 222h3v3h-3zM82 282h3v3h-3zM102 42h3v3h-3zM102 202h3v3h-3zM122 22h3v3h-3zM122 282h3v3h-3zM122 302h3v3h-3zM162 222h3v3h-3zM182 182h3v3h-3zM202 202h3v3h-3zM202 282h3v3h-3zM222 242h3v3h-3zM262 42h3v3h-3zM262 162h3v3h-3zM262 182h3v3h-3zM282 62h3v3h-3zM282 282h3v3h-3zM322 282h3v3h-3zM342 42h3v3h-3zM362 42h3v3h-3zM382 162h3v3h-3zM402 2h3v3h-3zM402 82h3v3h-3zM402 202h3v3h-3zM442 2h3v3h-3zM442 182h3v3h-3zM462 82h3v3h-3zM462 262h3v3h-3zM522 82h3v3h-3zM522 302h3v3h-3zM542 2h3v3h-3zM542 302h3v3h-3zM562 122h3v3h-3zM562 262h3v3h-3zM582 62h3v3h-3zM582 122h3v3h-3zM582 162h3v3h-3zM582 262h3v3h-3zM602 162h3v3h-3zM602 182h3v3h-3zM622 2h3v3h-3zM622 102h3v3h-3zM622 122h3v3h-3zM622 162h3v3h-3zM642 22h3v3h-3zM642 262h3v3h-3zM642 282h3v3h-3zM662 282h3v3h-3zM702 262h3v3h-3zM702 302h3v3h-3zM722 162h3v3h-3zM742 22h3v3h-3zM742 202h3v3h-3zM742 262h3v3h-3zM762 2h3v3h-3zM762 262h3v3h-3zM782 2h3v3h-3zM782 62h3v3h-3zM782 262h3v3h-3zM802 182h3v3h-3zM822 62h3v3h-3zM842 82h3v3h-3zM862 2h3v3h-3zM862 142h3v3h-3zM862 202h3v3h-3zM862 282h3v3h-3zM882 42h3v3h-3zM882 202h3v3h-3zM922 262h3v3h-3zM942 82h3v3h-3zM942 142h3v3h-3zM942 222h3v3h-3zM962 2h3v3h-3zM962 122h3v3h-3zM982 202h3v3h-3z" opacity="0.3" />
        <path d="M22 62h3v3h-3zM22 182h3v3h-3zM62 2h3v3h-3zM62 182h3v3h-3zM62 222h3v3h-3zM62 242h3v3h-3zM102 2h3v3h-3zM102 22h3v3h-3zM102 142h3v3h-3zM122 2h3v3h-3zM122 82h3v3h-3zM122 122h3v3h-3zM142 242h3v3h-3zM182 22h3v3h-3zM182 82h3v3h-3zM202 242h3v3h-3zM202 302h3v3h-3zM242 82h3v3h-3zM242 162h3v3h-3zM242 282h3v3h-3zM262 62h3v3h-3zM262 142h3v3h-3zM262 242h3v3h-3zM302 142h3v3h-3zM302 162h3v3h-3zM322 42h3v3h-3zM342 82h3v3h-3zM362 2h3v3h-3zM382 62h3v3h-3zM382 122h3v3h-3zM402 62h3v3h-3zM422 22h3v3h-3zM422 142h3v3h-3zM462 142h3v3h-3zM462 282h3v3h-3zM482 2h3v3h-3zM482 62h3v3h-3zM482 102h3v3h-3zM482 142h3v3h-3zM482 282h3v3h-3zM502 202h3v3h-3zM522 142h3v3h-3zM542 62h3v3h-3zM542 122h3v3h-3zM542 262h3v3h-3zM562 282h3v3h-3zM582 2h3v3h-3zM582 102h3v3h-3zM582 222h3v3h-3zM622 202h3v3h-3zM622 282h3v3h-3zM622 302h3v3h-3zM662 82h3v3h-3zM662 102h3v3h-3zM662 142h3v3h-3zM682 2h3v3h-3zM682 62h3v3h-3zM682 282h3v3h-3zM702 122h3v3h-3zM702 202h3v3h-3zM702 242h3v3h-3zM722 2h3v3h-3zM722 22h3v3h-3zM722 42h3v3h-3zM722 182h3v3h-3zM722 222h3v3h-3zM742 142h3v3h-3zM742 282h3v3h-3zM762 42h3v3h-3zM762 282h3v3h-3zM782 122h3v3h-3zM782 182h3v3h-3zM802 102h3v3h-3zM802 262h3v3h-3zM822 2h3v3h-3zM842 2h3v3h-3zM842 22h3v3h-3zM842 282h3v3h-3zM842 302h3v3h-3zM862 62h3v3h-3zM862 222h3v3h-3zM882 22h3v3h-3zM882 242h3v3h-3zM902 282h3v3h-3zM922 182h3v3h-3zM942 182h3v3h-3zM962 62h3v3h-3zM982 22h3v3h-3zM982 82h3v3h-3zM982 142h3v3h-3zM982 262h3v3h-3zM22 22h3v3h-3zM22 102h3v3h-3zM42 2h3v3h-3zM42 62h3v3h-3zM42 222h3v3h-3zM62 82h3v3h-3zM62 122h3v3h-3zM82 22h3v3h-3zM82 82h3v3h-3zM82 142h3v3h-3zM82 202h3v3h-3zM122 182h3v3h-3zM162 2h3v3h-3zM162 42h3v3h-3zM162 62h3v3h-3zM162 82h3v3h-3zM202 102h3v3h-3zM222 82h3v3h-3zM222 202h3v3h-3zM242 42h3v3h-3zM242 302h3v3h-3zM282 182h3v3h-3zM302 42h3v3h-3zM302 82h3v3h-3zM302 222h3v3h-3zM322 22h3v3h-3zM342 62h3v3h-3zM342 142h3v3h-3zM362 262h3v3h-3zM382 22h3v3h-3zM382 142h3v3h-3zM402 242h3v3h-3zM402 262h3v3h-3zM422 222h3v3h-3zM422 242h3v3h-3zM462 162h3v3h-3zM462 302h3v3h-3zM502 62h3v3h-3zM522 22h3v3h-3zM542 42h3v3h-3zM542 242h3v3h-3zM562 42h3v3h-3zM562 162h3v3h-3zM582 242h3v3h-3zM582 282h3v3h-3zM622 62h3v3h-3zM622 242h3v3h-3zM662 202h3v3h-3zM682 162h3v3h-3zM682 202h3v3h-3zM702 282h3v3h-3zM722 242h3v3h-3zM742 62h3v3h-3zM742 162h3v3h-3zM742 222h3v3h-3zM762 22h3v3h-3zM762 62h3v3h-3zM762 162h3v3h-3zM762 302h3v3h-3zM782 162h3v3h-3zM842 202h3v3h-3zM842 222h3v3h-3zM862 82h3v3h-3zM862 302h3v3h-3zM902 122h3v3h-3zM902 182h3v3h-3zM902 242h3v3h-3zM922 242h3v3h-3zM942 122h3v3h-3zM942 242h3v3h-3zM962 162h3v3h-3zM962 302h3v3h-3zM982 2h3v3h-3zM982 182h3v3h-3zM982 242h3v3h-3zM982 302h3v3h-3zM22 2h3v3h-3zM22 222h3v3h-3zM22 262h3v3h-3zM42 82h3v3h-3zM42 122h3v3h-3zM42 142h3v3h-3zM42 262h3v3h-3zM82 302h3v3h-3zM102 122h3v3h-3zM102 242h3v3h-3zM122 42h3v3h-3zM142 22h3v3h-3zM142 222h3v3h-3zM162 162h3v3h-3zM162 242h3v3h-3zM162 302h3v3h-3zM182 202h3v3h-3zM202 82h3v3h-3zM202 122h3v3h-3zM222 22h3v3h-3zM222 142h3v3h-3zM222 222h3v3h-3zM222 282h3v3h-3zM242 62h3v3h-3zM242 222h3v3h-3zM262 22h3v3h-3zM262 202h3v3h-3zM282 142h3v3h-3zM282 202h3v3h-3zM282 242h3v3h-3zM282 302h3v3h-3zM302 62h3v3h-3zM302 242h3v3h-3zM302 282h3v3h-3zM322 102h3v3h-3zM322 262h3v3h-3zM342 202h3v3h-3zM342 262h3v3h-3zM342 302h3v3h-3zM382 202h3v3h-3zM382 302h3v3h-3zM402 282h3v3h-3zM422 82h3v3h-3zM442 222h3v3h-3zM462 42h3v3h-3zM482 242h3v3h-3zM502 302h3v3h-3zM522 102h3v3h-3zM522 242h3v3h-3zM542 162h3v3h-3zM582 202h3v3h-3zM642 2h3v3h-3zM642 302h3v3h-3zM662 122h3v3h-3zM702 62h3v3h-3zM702 142h3v3h-3zM722 122h3v3h-3zM782 22h3v3h-3zM782 242h3v3h-3zM802 22h3v3h-3zM802 62h3v3h-3zM802 202h3v3h-3zM802 242h3v3h-3zM802 282h3v3h-3zM842 102h3v3h-3zM842 122h3v3h-3zM842 242h3v3h-3zM842 262h3v3h-3zM862 262h3v3h-3zM882 2h3v3h-3zM882 222h3v3h-3zM902 2h3v3h-3zM902 82h3v3h-3zM902 142h3v3h-3zM922 62h3v3h-3zM942 22h3v3h-3zM942 302h3v3h-3zM962 282h3v3h-3z" opacity="0.5" />
        <path d="M22 282h3v3h-3zM42 42h3v3h-3zM42 162h3v3h-3zM62 62h3v3h-3zM102 62h3v3h-3zM102 102h3v3h-3zM162 262h3v3h-3zM162 282h3v3h-3zM182 262h3v3h-3zM202 2h3v3h-3zM222 2h3v3h-3zM262 122h3v3h-3zM282 102h3v3h-3zM282 122h3v3h-3zM282 162h3v3h-3zM322 122h3v3h-3zM402 122h3v3h-3zM402 222h3v3h-3zM422 122h3v3h-3zM422 182h3v3h-3zM422 262h3v3h-3zM422 282h3v3h-3zM442 122h3v3h-3zM462 242h3v3h-3zM482 202h3v3h-3zM482 262h3v3h-3zM502 22h3v3h-3zM502 42h3v3h-3zM522 262h3v3h-3zM542 22h3v3h-3zM542 282h3v3h-3zM562 2h3v3h-3zM562 242h3v3h-3zM582 42h3v3h-3zM582 302h3v3h-3zM602 222h3v3h-3zM602 242h3v3h-3zM642 202h3v3h-3zM662 162h3v3h-3zM662 262h3v3h-3zM682 42h3v3h-3zM702 42h3v3h-3zM702 182h3v3h-3zM742 122h3v3h-3zM762 142h3v3h-3zM782 102h3v3h-3zM782 302h3v3h-3zM802 162h3v3h-3zM802 302h3v3h-3zM822 102h3v3h-3zM822 142h3v3h-3zM822 202h3v3h-3zM862 242h3v3h-3zM882 122h3v3h-3zM882 302h3v3h-3zM922 202h3v3h-3zM942 2h3v3h-3zM962 222h3v3h-3zM982 62h3v3h-3zM22 122h3v3h-3zM42 102h3v3h-3zM82 2h3v3h-3zM82 242h3v3h-3zM122 222h3v3h-3zM142 122h3v3h-3zM142 202h3v3h-3zM142 282h3v3h-3zM142 302h3v3h-3zM162 182h3v3h-3zM182 42h3v3h-3zM202 42h3v3h-3zM222 42h3v3h-3zM222 182h3v3h-3zM242 122h3v3h-3zM242 142h3v3h-3zM242 202h3v3h-3zM262 222h3v3h-3zM282 222h3v3h-3zM282 262h3v3h-3zM302 22h3v3h-3zM302 182h3v3h-3zM302 262h3v3h-3zM322 142h3v3h-3zM322 222h3v3h-3zM322 242h3v3h-3zM322 302h3v3h-3zM342 2h3v3h-3zM362 22h3v3h-3zM362 122h3v3h-3zM362 162h3v3h-3zM382 242h3v3h-3zM402 42h3v3h-3zM422 162h3v3h-3zM422 302h3v3h-3zM442 42h3v3h-3zM442 82h3v3h-3zM442 242h3v3h-3zM442 302h3v3h-3zM482 42h3v3h-3zM482 122h3v3h-3zM502 82h3v3h-3zM542 82h3v3h-3zM562 82h3v3h-3zM562 182h3v3h-3zM602 82h3v3h-3zM602 102h3v3h-3zM602 122h3v3h-3zM622 182h3v3h-3zM642 42h3v3h-3zM642 102h3v3h-3zM642 122h3v3h-3zM682 22h3v3h-3zM682 182h3v3h-3zM702 2h3v3h-3zM702 162h3v3h-3zM702 222h3v3h-3zM722 302h3v3h-3zM742 182h3v3h-3zM762 102h3v3h-3zM762 182h3v3h-3zM762 202h3v3h-3zM822 82h3v3h-3zM822 222h3v3h-3zM822 262h3v3h-3zM842 162h3v3h-3zM862 42h3v3h-3zM922 222h3v3h-3zM942 42h3v3h-3zM942 282h3v3h-3zM962 182h3v3h-3zM962 202h3v3h-3zM982 102h3v3h-3zM982 162h3v3h-3zM22 162h3v3h-3zM22 302h3v3h-3zM42 282h3v3h-3zM82 62h3v3h-3zM102 82h3v3h-3zM122 62h3v3h-3zM122 102h3v3h-3zM122 242h3v3h-3zM142 2h3v3h-3zM142 162h3v3h-3zM162 22h3v3h-3zM162 142h3v3h-3zM162 202h3v3h-3zM182 2h3v3h-3zM182 162h3v3h-3zM182 222h3v3h-3zM182 302h3v3h-3zM202 142h3v3h-3zM202 162h3v3h-3zM222 162h3v3h-3zM222 302h3v3h-3zM242 2h3v3h-3zM242 262h3v3h-3zM262 2h3v3h-3zM262 82h3v3h-3zM262 102h3v3h-3zM262 262h3v3h-3zM282 82h3v3h-3zM322 2h3v3h-3zM322 162h3v3h-3zM322 182h3v3h-3zM342 122h3v3h-3zM342 182h3v3h-3zM342 242h3v3h-3zM362 62h3v3h-3zM362 202h3v3h-3zM362 222h3v3h-3zM382 82h3v3h-3zM382 102h3v3h-3zM382 182h3v3h-3zM402 142h3v3h-3zM422 2h3v3h-3zM422 62h3v3h-3zM422 102h3v3h-3zM462 22h3v3h-3zM502 122h3v3h-3zM502 142h3v3h-3zM502 262h3v3h-3zM522 182h3v3h-3zM562 62h3v3h-3zM582 142h3v3h-3zM622 82h3v3h-3zM622 142h3v3h-3zM622 262h3v3h-3zM642 222h3v3h-3zM662 22h3v3h-3zM662 62h3v3h-3zM682 142h3v3h-3zM682 302h3v3h-3zM722 142h3v3h-3zM742 102h3v3h-3zM762 222h3v3h-3zM782 82h3v3h-3zM782 142h3v3h-3zM782 202h3v3h-3zM782 282h3v3h-3zM802 82h3v3h-3zM802 142h3v3h-3zM822 162h3v3h-3zM842 42h3v3h-3zM842 142h3v3h-3zM862 22h3v3h-3zM862 182h3v3h-3zM882 142h3v3h-3zM882 282h3v3h-3zM902 42h3v3h-3zM902 162h3v3h-3zM902 262h3v3h-3zM902 302h3v3h-3zM922 2h3v3h-3zM922 102h3v3h-3zM922 122h3v3h-3zM962 42h3v3h-3zM962 142h3v3h-3zM982 122h3v3h-3z" opacity="0.8" />
        <path d="M22 142h3v3h-3zM42 202h3v3h-3zM62 102h3v3h-3zM62 162h3v3h-3zM62 262h3v3h-3zM62 282h3v3h-3zM82 122h3v3h-3zM102 162h3v3h-3zM102 262h3v3h-3zM122 202h3v3h-3zM122 262h3v3h-3zM142 42h3v3h-3zM142 102h3v3h-3zM162 122h3v3h-3zM202 22h3v3h-3zM202 262h3v3h-3zM222 62h3v3h-3zM242 102h3v3h-3zM262 302h3v3h-3zM282 42h3v3h-3zM302 202h3v3h-3zM322 82h3v3h-3zM322 202h3v3h-3zM342 162h3v3h-3zM362 282h3v3h-3zM362 302h3v3h-3zM382 262h3v3h-3zM402 182h3v3h-3zM422 202h3v3h-3zM442 22h3v3h-3zM442 102h3v3h-3zM442 142h3v3h-3zM442 262h3v3h-3zM462 102h3v3h-3zM462 122h3v3h-3zM462 182h3v3h-3zM462 202h3v3h-3zM462 222h3v3h-3zM482 22h3v3h-3zM482 162h3v3h-3zM482 182h3v3h-3zM502 2h3v3h-3zM502 102h3v3h-3zM502 222h3v3h-3zM522 62h3v3h-3zM522 202h3v3h-3zM542 102h3v3h-3zM542 202h3v3h-3zM542 222h3v3h-3zM562 102h3v3h-3zM562 202h3v3h-3zM582 22h3v3h-3zM582 82h3v3h-3zM602 42h3v3h-3zM602 62h3v3h-3zM622 42h3v3h-3zM622 222h3v3h-3zM642 62h3v3h-3zM642 82h3v3h-3zM642 142h3v3h-3zM642 162h3v3h-3zM642 182h3v3h-3zM642 242h3v3h-3zM662 42h3v3h-3zM682 222h3v3h-3zM682 242h3v3h-3zM682 262h3v3h-3zM702 102h3v3h-3zM722 82h3v3h-3zM722 202h3v3h-3zM742 42h3v3h-3zM742 82h3v3h-3zM742 302h3v3h-3zM822 302h3v3h-3zM842 182h3v3h-3zM862 102h3v3h-3zM902 222h3v3h-3zM922 162h3v3h-3zM922 282h3v3h-3zM922 302h3v3h-3zM942 102h3v3h-3zM942 202h3v3h-3zM942 262h3v3h-3zM962 242h3v3h-3zM962 262h3v3h-3z" opacity="1" />
      </g>
    </g>

    <text class="meta rise d1" x="48" y="58">PRODUCT MANAGER AND BUILDER</text>
    <text class="name rise d2" x="48" y="132">Dennis Do</text>
    <text class="role rise d3" x="48" y="176">I direct AI agents to build and ship real product.</text>

    <circle class="dot pulse" cx="53" cy="204" r="3.5" />
    <text class="meta rise d4" x="68" y="209">QUEENS, NYC</text>

    <line class="rule draw" x1="48" y1="252" x2="952" y2="252" />

    <g mask="url(#edges)">
      <g class="track">
        <text class="tick" x="48" y="292" textLength="1700" lengthAdjust="spacing">MAVENSTUDIO FOUNDER <tspan class="slash">/</tspan> AUTOBULLETIN <tspan class="slash">/</tspan> 413 YOUTH CLUB <tspan class="slash">/</tspan> EN HAKKORE CAFE <tspan class="slash">/</tspan> SCOUT PRODUCT DESIGNER <tspan class="slash">/</tspan> NASA L'SPACE PROJECT MANAGER <tspan class="slash">/</tspan> RESEARCH FOUNDATION OF CUNY <tspan class="slash">/</tspan></text>
        <text class="tick" x="1748" y="292" textLength="1700" lengthAdjust="spacing">MAVENSTUDIO FOUNDER <tspan class="slash">/</tspan> AUTOBULLETIN <tspan class="slash">/</tspan> 413 YOUTH CLUB <tspan class="slash">/</tspan> EN HAKKORE CAFE <tspan class="slash">/</tspan> SCOUT PRODUCT DESIGNER <tspan class="slash">/</tspan> NASA L'SPACE PROJECT MANAGER <tspan class="slash">/</tspan> RESEARCH FOUNDATION OF CUNY <tspan class="slash">/</tspan></text>
      </g>
    </g>
  </g>
</svg>
